<?xml version="1.0" standalone="no"?>
<!DOCTYPE svg PUBLIC "-//W3C//DTD SVG 20010904//EN"
 "http://www.w3.org/TR/2001/REC-SVG-20010904/DTD/svg10.dtd">
<svg version="1.0" xmlns="http://www.w3.org/2000/svg"
 width="1280.000000pt" height="640.000000pt" viewBox="0 0 1280.000000 640.000000"
 preserveAspectRatio="xMidYMid meet">

<g transform="translate(0.000000,640.000000) scale(0.100000,-0.100000)"
fill="#000000" stroke="none">
<path d="M5613 3625 c-62 -29 -79 -53 -57 -83 19 -28 36 -27 104 6 61 30 78
64 44 89 -23 17 -29 16 -91 -12z"/>
<path d="M3812 3598 c-16 -16 -17 -560 -2 -589 12 -21 50 -25 68 -7 7 7 12 42
12 85 l0 73 40 0 c37 0 48 -7 129 -85 91 -88 121 -102 141 -65 14 26 5 42 -59
105 -28 27 -51 52 -51 56 0 4 14 12 30 19 17 7 46 29 65 49 77 79 80 206 8
291 -58 67 -96 80 -243 80 -85 0 -130 -4 -138 -12z m287 -101 c67 -45 78 -133
25 -196 -29 -35 -77 -51 -151 -51 -86 0 -83 -6 -83 147 l0 136 85 -6 c70 -4
93 -10 124 -30z"/>
<path d="M4841 3596 c-9 -11 -12 -74 -9 -233 3 -240 5 -248 70 -312 52 -51 86
-65 158 -65 100 0 179 50 215 138 20 48 21 132 2 177 -52 124 -201 180 -310
116 l-47 -28 0 91 c0 50 -5 100 -10 111 -13 22 -52 25 -69 5z m304 -268 c115
-78 54 -258 -87 -258 -105 0 -175 132 -115 221 47 70 131 86 202 37z"/>
<path d="M6620 3584 c-13 -32 -13 -534 -1 -567 12 -30 36 -40 62 -27 16 9 19
22 19 89 l0 79 109 4 c103 3 112 5 153 33 54 38 84 83 97 143 20 97 -29 202
-118 249 -40 21 -57 23 -178 23 l-133 0 -10 -26z m298 -91 c69 -56 75 -147 14
-206 -34 -33 -79 -47 -149 -47 -86 0 -83 -6 -83 152 l0 141 91 -5 c81 -5 94
-9 127 -35z"/>
<path d="M7477 3582 c-22 -24 -21 -45 1 -65 23 -21 46 -22 66 -1 21 21 20 40
-4 64 -25 25 -42 25 -63 2z"/>
<path d="M8157 3573 c-4 -3 -7 -99 -7 -212 0 -187 2 -208 21 -248 57 -118 195
-165 309 -105 63 32 79 63 50 92 -20 20 -20 20 -68 -5 -55 -29 -104 -32 -151
-7 -54 27 -71 71 -71 179 l0 92 101 3 c90 3 103 5 115 23 12 18 11 24 -2 43
-14 20 -23 22 -115 22 l-99 0 0 46 c0 60 -14 84 -49 84 -15 0 -31 -3 -34 -7z"/>
<path d="M4329 3429 c-20 -20 -21 -28 -17 -148 6 -144 17 -180 75 -238 66 -66
155 -80 239 -38 95 47 124 114 124 286 0 107 -2 121 -21 140 -18 18 -23 19
-42 6 -20 -13 -22 -25 -27 -150 -4 -117 -8 -139 -26 -164 -55 -74 -159 -71
-207 6 -19 31 -23 54 -27 165 -5 118 -7 130 -27 143 -19 13 -24 12 -44 -8z"/>
<path d="M5535 3443 c-129 -30 -198 -109 -198 -228 -1 -141 118 -247 260 -232
90 9 134 51 95 90 -19 19 -25 20 -55 9 -84 -30 -158 -7 -192 59 l-16 29 170 0
c187 0 201 4 201 61 0 67 -59 152 -130 189 -38 19 -104 31 -135 23z m121 -112
c27 -21 53 -56 54 -73 0 -5 -63 -8 -140 -8 -77 0 -140 2 -140 5 0 20 36 69 63
86 43 27 122 22 163 -10z"/>
<path d="M6012 3438 c-57 -13 -136 -87 -151 -143 -15 -56 -14 -278 1 -293 18
-18 56 -14 68 7 5 11 10 73 10 138 0 135 14 173 75 199 47 19 71 18 117 -8 60
-34 68 -58 68 -197 0 -126 8 -151 49 -151 35 0 41 21 41 144 0 141 -8 177 -51
229 -55 66 -141 95 -227 75z"/>
<path d="M7297 3436 c-65 -18 -116 -61 -149 -126 -26 -50 -28 -62 -28 -175 0
-81 4 -125 12 -133 16 -16 55 -15 65 1 4 6 10 68 13 137 4 104 8 130 25 152
23 32 90 68 126 68 49 0 66 47 27 74 -26 19 -28 19 -91 2z"/>
<path d="M7488 3439 c-16 -9 -18 -31 -18 -224 0 -204 1 -215 20 -225 14 -8 26
-8 40 0 19 10 20 21 20 220 0 176 -2 211 -16 224 -18 19 -23 19 -46 5z"/>
<path d="M7790 3436 c-64 -17 -115 -59 -145 -119 -79 -160 46 -348 223 -335
75 6 116 26 120 59 5 39 -21 55 -62 41 -42 -16 -115 -15 -144 2 -22 12 -62 62
-62 79 0 4 74 7 165 7 151 0 167 2 185 20 15 15 18 28 14 52 -18 96 -86 171
-177 195 -60 15 -59 15 -117 -1z m130 -91 c32 -16 70 -61 70 -81 0 -11 -28
-14 -135 -14 -110 0 -135 3 -135 14 0 20 49 76 74 86 33 14 95 11 126 -5z"/>
<path d="M8755 3441 c-108 -27 -178 -116 -178 -226 0 -73 24 -126 82 -178 65
-59 172 -73 250 -33 72 38 131 132 131 209 0 95 -75 193 -169 221 -59 17 -70
18 -116 7z m136 -115 c85 -57 73 -192 -21 -241 -40 -21 -99 -19 -137 5 -36 21
-73 85 -73 125 0 48 38 105 83 126 51 24 96 19 148 -15z"/>
</g>
</svg>
